<svg width="128" height="128" viewBox="0 0 128 128" fill="none" xmlns="http://www.w3.org/2000/svg">
<path d="M82.5098 26.67L51.3398 36.4L86.1098 40.34L82.5098 26.67Z" fill="#FF0000"/>
<path d="M81.73 25.99L71.99 21.66L50.98 35.59L81.73 25.99Z" fill="#FF0000"/>
<path d="M72.15 20.76L75.87 22.42L67.38 12.71L62.27 15.18L72.15 20.76Z" fill="#FF0000"/>
<path d="M50.0498 37.15L60.5198 97.57H77.2098L50.0498 37.15Z" fill="#FF0000"/>
<path d="M79.5902 16.8L68.2202 12.3L68.2002 12.31L77.6902 23.16L79.5902 16.8Z" fill="#FF0000"/>
<path d="M56.25 21.8L54.96 27.09L69.44 21.63L56.25 21.8Z" fill="#FF0000"/>
<path d="M80.3802 17.25L78.4902 23.58L82.3902 25.37L80.3802 17.25Z" fill="#FF0000"/>
<path d="M56.5498 20.91L70.3098 20.74L61.5698 15.8L61.7898 15.42L56.5498 20.91Z" fill="#FF0000"/>
<path d="M49.2198 37.55L31.7598 117.88L59.6698 97.82L49.2198 37.55Z" fill="#FF0000"/>
<path d="M68.45 22.95L54.57 28.18L50.5 34.85L68.45 22.95Z" fill="#FF0000"/>
<path d="M79.1299 92.83L92.7099 48.1L86.8399 42.23L79.1299 92.83Z" fill="#FF0000"/>
<path d="M51.1201 37.27L77.6801 96.47L86.1001 41.23L51.1201 37.27Z" fill="#FF0000"/>
<path d="M81.3398 17.46L83.2198 25.09L96.2398 21.6L81.3398 17.46Z" fill="#FF0000"/>
<path d="M79.4001 15.77L76.8101 11.88L70.3501 12.2L79.4001 15.77Z" fill="#FF0000"/>
</svg>
