<svg width="235" height="235" viewBox="0 0 235 235" fill="none" xmlns="http://www.w3.org/2000/svg">
<path d="M0.834839 117.202C0.834839 52.6736 53.1301 0.366585 117.67 0.366585C182.186 0.366585 234.505 52.6736 234.505 117.202C234.505 181.729 182.186 234.036 117.67 234.036C53.1301 234.036 0.834839 181.729 0.834839 117.202Z" fill="#FC3F1D"/>
<path d="M132.622 66.5656H121.826C102.034 66.5656 91.6244 76.59 91.6244 91.3697C91.6244 108.077 98.8214 115.905 113.601 125.941L125.81 134.166L90.7248 186.59H64.507L95.994 139.693C77.8846 126.712 67.72 114.106 67.72 92.7834C67.72 66.0515 86.3551 47.8019 121.698 47.8019H156.783V186.462H132.622V66.5656Z" fill="white"/>
</svg>
